<svg width="23" height="23" viewBox="0 0 23 23" fill="none" xmlns="http://www.w3.org/2000/svg">
<path d="M20.5161 1.19298C20.199 0.875647 19.8224 0.623915 19.408 0.452166C18.9935 0.280417 18.5493 0.192017 18.1006 0.192017C17.652 0.192017 17.2078 0.280417 16.7933 0.452166C16.3788 0.623915 16.0023 0.875647 15.6851 1.19298L2.14214 14.736C2.04701 14.8276 1.97798 14.9429 1.94214 15.07L0.166138 21.502C0.129969 21.6314 0.128879 21.7682 0.16298 21.8982C0.197081 22.0282 0.265145 22.1469 0.360196 22.2419C0.455248 22.337 0.573866 22.405 0.703892 22.4391C0.833917 22.4732 0.970672 22.4721 1.10014 22.436L7.53014 20.656C7.65727 20.6202 7.77256 20.5511 7.86414 20.456L21.4071 6.91498C22.0463 6.27357 22.4052 5.40498 22.4052 4.49948C22.4052 3.59397 22.0463 2.72538 21.4071 2.08398L20.5161 1.19298ZM3.79714 15.228L14.8841 4.14398L18.4541 7.71798L7.37114 18.802L3.79714 15.228ZM3.08414 16.661L5.93914 19.516L1.98914 20.61L3.08414 16.661ZM20.3341 5.83998L19.5291 6.64498L15.9541 3.07098L16.7591 2.26598C17.1153 1.91088 17.5977 1.71148 18.1006 1.71148C18.6036 1.71148 19.086 1.91088 19.4421 2.26598L20.3331 3.15698C20.6884 3.513 20.8879 3.99534 20.8881 4.49827C20.8883 5.0012 20.6891 5.48369 20.3341 5.83998Z" fill="white"/>
</svg>
